<svg xmlns="http://www.w3.org/2000/svg" xmlns:xlink="http://www.w3.org/1999/xlink" fill="none" version="1.1" width="139.52947998046875" height="144.1044921875" viewBox="0 0 139.52947998046875 144.1044921875"><g style="mix-blend-mode:passthrough"><g><g style="mix-blend-mode:passthrough"><path d="M0.00018310546875,82.3454515625C0.00018310546875,82.3454515625,0.00018310546875,41.1728515625,0.00018310546875,41.1728515625C0.00018310546875,41.1728515625,34.31068310546875,61.5169515625,34.31068310546875,61.5169515625C34.31068310546875,61.5169515625,0.00018310546875,82.3454515625,0.00018310546875,82.3454515625C0.00018310546875,82.3454515625,0.00018310546875,82.3454515625,0.00018310546875,82.3454515625Z" fill="#01A2A7" fill-opacity="1"/></g><g style="mix-blend-mode:passthrough"><path d="M34.31048583984375,61.7595140625C34.31048583984375,61.7595140625,34.31048583984375,20.5869140625,34.31048583984375,20.5869140625C34.31048583984375,20.5869140625,70.90838583984376,40.9310140625,70.90838583984376,40.9310140625C70.90838583984376,40.9310140625,34.31048583984375,61.7595140625,34.31048583984375,61.7595140625C34.31048583984375,61.7595140625,34.31048583984375,61.7595140625,34.31048583984375,61.7595140625Z" fill="#36C5EF" fill-opacity="1"/></g><g style="mix-blend-mode:passthrough"><path d="M70.90838623046875,82.3454515625C70.90838623046875,82.3454515625,70.90838623046875,41.1728515625,70.90838623046875,41.1728515625C70.90838623046875,41.1728515625,107.50628623046876,61.5169515625,107.50628623046876,61.5169515625C107.50628623046876,61.5169515625,70.90838623046875,82.3454515625,70.90838623046875,82.3454515625C70.90838623046875,82.3454515625,70.90838623046875,82.3454515625,70.90838623046875,82.3454515625Z" transform="matrix(-1,0,0,1,141.8167724609375,0)" fill="#EBB22F" fill-opacity="1"/></g><g style="mix-blend-mode:passthrough"><path d="M34.31048583984375,61.7595140625C34.31048583984375,61.7595140625,34.31048583984375,20.5869140625,34.31048583984375,20.5869140625C34.31048583984375,20.5869140625,68.62098583984374,40.9310140625,68.62098583984374,40.9310140625C68.62098583984374,40.9310140625,34.31048583984375,61.7595140625,34.31048583984375,61.7595140625C34.31048583984375,61.7595140625,34.31048583984375,61.7595140625,34.31048583984375,61.7595140625Z" transform="matrix(-1,0,0,1,68.6209716796875,0)" fill="#EBB22F" fill-opacity="1"/></g><g style="mix-blend-mode:passthrough"><path d="M70.90838623046875,41.1726C70.90838623046875,41.1726,70.90838623046875,0,70.90838623046875,0C70.90838623046875,0,107.50628623046876,20.3441,107.50628623046876,20.3441C107.50628623046876,20.3441,70.90838623046875,41.1726,70.90838623046875,41.1726C70.90838623046875,41.1726,70.90838623046875,41.1726,70.90838623046875,41.1726Z" transform="matrix(-1,0,0,1,141.8167724609375,0)" fill="#FF4B40" fill-opacity="1"/></g><g style="mix-blend-mode:passthrough"><path d="M139.52947998046875,82.3454515625C139.52947998046875,82.3454515625,139.52947998046875,41.1728515625,139.52947998046875,41.1728515625C139.52947998046875,41.1728515625,173.83997998046874,61.5169515625,173.83997998046874,61.5169515625C173.83997998046874,61.5169515625,139.52947998046875,82.3454515625,139.52947998046875,82.3454515625C139.52947998046875,82.3454515625,139.52947998046875,82.3454515625,139.52947998046875,82.3454515625Z" transform="matrix(-1,0,0,1,279.0589599609375,0)" fill="#EBB22F" fill-opacity="1"/></g><g style="mix-blend-mode:passthrough"><path d="M105.21893310546875,61.7595140625C105.21893310546875,61.7595140625,105.21893310546875,20.5869140625,105.21893310546875,20.5869140625C105.21893310546875,20.5869140625,139.52943310546874,40.9310140625,139.52943310546874,40.9310140625C139.52943310546874,40.9310140625,105.21893310546875,61.7595140625,105.21893310546875,61.7595140625C105.21893310546875,61.7595140625,105.21893310546875,61.7595140625,105.21893310546875,61.7595140625Z" transform="matrix(-1,0,0,1,210.4378662109375,0)" fill="#FFFFFF" fill-opacity="1"/></g><g style="mix-blend-mode:passthrough"><path d="M70.90838623046875,82.3454515625C70.90838623046875,82.3454515625,70.90838623046875,41.1728515625,70.90838623046875,41.1728515625C70.90838623046875,41.1728515625,105.21888623046874,61.5169515625,105.21888623046874,61.5169515625C105.21888623046874,61.5169515625,70.90838623046875,82.3454515625,70.90838623046875,82.3454515625C70.90838623046875,82.3454515625,70.90838623046875,82.3454515625,70.90838623046875,82.3454515625Z" fill="#FF4B40" fill-opacity="1"/></g><g style="mix-blend-mode:passthrough"><path d="M105.21893310546875,61.7595140625C105.21893310546875,61.7595140625,105.21893310546875,20.5869140625,105.21893310546875,20.5869140625C105.21893310546875,20.5869140625,139.52943310546874,40.9310140625,139.52943310546874,40.9310140625C139.52943310546874,40.9310140625,105.21893310546875,61.7595140625,105.21893310546875,61.7595140625C105.21893310546875,61.7595140625,105.21893310546875,61.7595140625,105.21893310546875,61.7595140625Z" fill="#FF4B40" fill-opacity="1"/></g><g style="mix-blend-mode:passthrough"><path d="M70.90838623046875,41.1726C70.90838623046875,41.1726,70.90838623046875,0,70.90838623046875,0C70.90838623046875,0,105.21888623046874,20.3441,105.21888623046874,20.3441C105.21888623046874,20.3441,70.90838623046875,41.1726,70.90838623046875,41.1726C70.90838623046875,41.1726,70.90838623046875,41.1726,70.90838623046875,41.1726Z" fill="#01A2A7" fill-opacity="1"/></g><g style="mix-blend-mode:passthrough"><path d="M34.31048583984375,164.69066640625C34.31048583984375,164.69066640625,34.31048583984375,123.51806640625,34.31048583984375,123.51806640625C34.31048583984375,123.51806640625,70.90838583984376,143.86216640625,70.90838583984376,143.86216640625C70.90838583984376,143.86216640625,34.31048583984375,164.69066640625,34.31048583984375,164.69066640625C34.31048583984375,164.69066640625,34.31048583984375,164.69066640625,34.31048583984375,164.69066640625Z" transform="matrix(1,0,0,-1,0,247.0361328125)" fill="#36C5EF" fill-opacity="1"/></g><g style="mix-blend-mode:passthrough"><path d="M34.31048583984375,164.69066640625C34.31048583984375,164.69066640625,34.31048583984375,123.51806640625,34.31048583984375,123.51806640625C34.31048583984375,123.51806640625,68.62098583984374,143.86216640625,68.62098583984374,143.86216640625C68.62098583984374,143.86216640625,34.31048583984375,164.69066640625,34.31048583984375,164.69066640625C34.31048583984375,164.69066640625,34.31048583984375,164.69066640625,34.31048583984375,164.69066640625Z" transform="matrix(-1,0,0,-1,68.6209716796875,247.0361328125)" fill="#01A2A7" fill-opacity="1"/></g><g style="mix-blend-mode:passthrough"><path d="M70.90838623046875,187.5644921875C70.90838623046875,187.5644921875,70.90838623046875,144.1044921875,70.90838623046875,144.1044921875C70.90838623046875,144.1044921875,107.50628623046876,165.5787921875,107.50628623046876,165.5787921875C107.50628623046876,165.5787921875,70.90838623046875,187.5644921875,70.90838623046875,187.5644921875C70.90838623046875,187.5644921875,70.90838623046875,187.5644921875,70.90838623046875,187.5644921875Z" transform="matrix(-1,0,0,-1,141.8167724609375,288.208984375)" fill="#EBB22F" fill-opacity="1"/></g><g style="mix-blend-mode:passthrough"><path d="M105.21893310546875,164.69066640625C105.21893310546875,164.69066640625,105.21893310546875,123.51806640625,105.21893310546875,123.51806640625C105.21893310546875,123.51806640625,139.52943310546874,143.86216640625,139.52943310546874,143.86216640625C139.52943310546874,143.86216640625,105.21893310546875,164.69066640625,105.21893310546875,164.69066640625C105.21893310546875,164.69066640625,105.21893310546875,164.69066640625,105.21893310546875,164.69066640625Z" transform="matrix(-1,0,0,-1,210.4378662109375,247.0361328125)" fill="#36C5EF" fill-opacity="1"/></g><g style="mix-blend-mode:passthrough"><path d="M105.21893310546875,164.69066640625C105.21893310546875,164.69066640625,105.21893310546875,123.51806640625,105.21893310546875,123.51806640625C105.21893310546875,123.51806640625,139.52943310546874,143.86216640625,139.52943310546874,143.86216640625C139.52943310546874,143.86216640625,105.21893310546875,164.69066640625,105.21893310546875,164.69066640625C105.21893310546875,164.69066640625,105.21893310546875,164.69066640625,105.21893310546875,164.69066640625Z" transform="matrix(1,0,0,-1,0,247.0361328125)" fill="#01A2A7" fill-opacity="1"/></g><g style="mix-blend-mode:passthrough"><path d="M70.90838623046875,187.5644921875C70.90838623046875,187.5644921875,70.90838623046875,144.1044921875,70.90838623046875,144.1044921875C70.90838623046875,144.1044921875,105.21888623046874,165.5787921875,105.21888623046874,165.5787921875C105.21888623046874,165.5787921875,70.90838623046875,187.5644921875,70.90838623046875,187.5644921875C70.90838623046875,187.5644921875,70.90838623046875,187.5644921875,70.90838623046875,187.5644921875Z" transform="matrix(1,0,0,-1,0,288.208984375)" fill="#FF4B40" fill-opacity="1"/></g></g></g></svg>